<?xml version="1.0" standalone="no"?>
<!DOCTYPE svg PUBLIC "-//W3C//DTD SVG 20010904//EN"
 "http://www.w3.org/TR/2001/REC-SVG-20010904/DTD/svg10.dtd">
<svg version="1.0" xmlns="http://www.w3.org/2000/svg"
 width="500.000000pt" height="500.000000pt" viewBox="0 0 500.000000 500.000000"
 preserveAspectRatio="xMidYMid meet">

<g transform="translate(0.000000,500.000000) scale(0.100000,-0.100000)"
fill="#000000" stroke="none">
<path d="M1920 4676 c-119 -35 -207 -101 -285 -216 -104 -153 -206 -212 -403
-231 -160 -15 -256 -59 -342 -156 -77 -88 -120 -200 -120 -317 0 -148 -89
-301 -226 -387 -161 -102 -242 -253 -232 -434 5 -80 8 -90 85 -267 24 -55 28
-76 28 -168 0 -92 -4 -113 -28 -167 -79 -182 -80 -187 -85 -275 -3 -68 0 -101
16 -155 37 -120 87 -183 222 -278 142 -99 204 -209 220 -389 5 -56 14 -115 19
-133 31 -105 120 -218 217 -273 60 -35 150 -60 216 -60 116 0 247 -51 326
-128 26 -26 71 -81 100 -123 106 -154 228 -215 414 -207 73 3 106 9 153 30
199 86 185 82 280 82 99 0 128 -8 260 -67 80 -35 101 -40 187 -45 187 -9 304
53 427 226 112 158 204 211 402 231 125 12 195 36 270 92 119 89 174 196 190
370 16 193 77 297 233 403 96 65 147 124 193 221 26 55 28 70 28 180 l0 120
-47 102 c-88 188 -88 284 -2 478 l49 110 0 120 c0 114 -2 123 -32 187 -39 83
-102 152 -203 223 -132 92 -192 188 -211 335 -27 222 -45 271 -131 365 -88 97
-182 139 -341 154 -184 18 -293 79 -392 220 -101 145 -203 214 -342 234 -98
15 -186 -1 -299 -51 -50 -23 -115 -47 -144 -53 -78 -17 -185 -6 -261 26 -35
15 -91 38 -124 52 -72 31 -213 40 -285 19z m1017 -747 c8 -8 0 -34 -32 -98
-59 -117 -135 -367 -119 -392 3 -5 25 -9 49 -9 63 0 185 -25 244 -51 50 -21
51 -22 51 -65 0 -42 -1 -44 -47 -64 -96 -43 -166 -52 -338 -47 -171 6 -282 25
-355 60 -25 12 -47 30 -48 40 -6 31 18 75 46 86 43 18 163 41 213 41 26 0 60
3 77 6 27 5 31 11 37 52 20 134 92 356 140 428 17 26 62 33 82 13z m-1152
-501 c4 -9 33 -13 98 -13 123 0 169 -18 239 -94 81 -87 152 -242 212 -459 l25
-93 -22 7 c-12 4 -32 7 -44 6 -12 -1 -24 2 -27 6 -7 12 -205 -7 -261 -25 -138
-44 -225 -122 -225 -202 l0 -29 31 15 c16 8 58 19 92 23 34 5 103 25 152 46
93 38 163 47 204 25 11 -6 34 -11 52 -11 18 0 84 -16 147 -36 97 -31 116 -41
132 -66 17 -28 18 -29 25 -10 3 12 1 40 -5 64 -15 55 -101 141 -158 158 l-39
12 -7 82 c-3 44 -6 155 -6 245 l0 163 23 -6 c125 -38 220 -50 372 -50 134 0
170 4 222 21 l62 21 -5 -62 c-2 -33 -9 -168 -14 -300 -6 -131 -13 -243 -16
-247 -7 -12 -6 -12 51 10 28 10 69 22 92 26 l43 7 -12 -32 c-6 -19 -25 -41
-44 -52 -19 -11 -34 -26 -34 -33 0 -8 -5 -17 -12 -21 -8 -5 -9 -2 -5 9 3 9 2
19 -3 22 -18 11 -10 21 36 43 26 13 44 25 41 28 -3 3 -19 -2 -37 -11 -17 -9
-39 -14 -47 -11 -13 5 -15 0 -10 -37 4 -28 2 -48 -6 -57 -9 -10 -9 -11 1 -6
20 12 14 -5 -27 -71 l-38 -63 -21 23 c-16 17 -19 26 -11 34 6 6 17 9 23 7 7
-3 24 9 40 25 23 24 26 33 17 48 -5 11 -9 38 -8 61 1 22 -1 38 -5 36 -5 -3 -8
-14 -8 -25 0 -14 -7 -19 -25 -19 -22 0 -24 -3 -15 -19 13 -26 -4 -38 -28 -20
-9 8 -7 2 6 -12 29 -33 28 -51 -7 -76 -22 -17 -31 -19 -40 -10 -9 9 -11 9 -6
-3 4 -11 -13 -23 -70 -45 -41 -17 -75 -33 -75 -37 0 -4 36 8 81 27 91 39 95
40 102 22 3 -9 -20 -33 -58 -62 -35 -26 -66 -54 -69 -62 -4 -9 -1 -11 5 -7 6
4 16 0 21 -7 7 -11 9 -9 5 7 -3 16 6 31 36 55 57 48 68 54 78 38 21 -33 9 -66
-35 -103 -44 -36 -61 -43 -69 -28 -2 4 -2 1 0 -6 4 -16 -57 -83 -69 -76 -4 3
-13 25 -19 50 -11 42 -14 45 -42 42 -27 -3 -32 -9 -54 -71 -13 -37 -33 -83
-44 -101 l-19 -33 -132 -16 c-73 -9 -217 -24 -319 -33 -214 -19 -222 -18 -351
57 -93 55 -156 121 -187 195 -13 33 -36 86 -50 119 -14 33 -26 62 -27 65 -2
16 -29 60 -36 60 -51 0 -271 424 -313 603 -29 123 -10 208 60 261 46 35 75 45
140 47 41 2 55 6 57 18 5 28 283 55 293 29z m1768 -755 c156 -46 216 -116 234
-269 l6 -51 -79 -61 c-44 -33 -108 -87 -143 -120 -88 -83 -165 -128 -221 -131
-13 -1 -13 -2 0 -11 8 -5 11 -10 5 -11 -22 -4 -41 -6 -63 -8 -13 0 -26 -10
-31 -23 -13 -35 -44 -59 -61 -48 -12 7 -12 12 3 28 26 28 21 50 -23 99 -22 25
-40 49 -40 53 0 7 65 50 75 50 2 0 6 -8 8 -17 4 -14 5 -13 6 4 1 14 17 33 45
53 52 35 56 36 57 13 1 -17 2 -17 6 -1 4 14 8 16 24 7 28 -14 55 -3 126 52 58
46 63 48 73 30 13 -25 13 -34 0 -26 -5 3 -26 -9 -47 -28 -21 -19 -56 -46 -78
-60 -22 -15 -36 -27 -32 -27 12 0 91 55 106 74 8 9 18 16 24 16 6 0 -2 -15
-19 -32 -16 -18 -8 -13 18 11 26 25 51 42 54 38 11 -11 -50 -76 -77 -83 -29
-7 -55 -44 -46 -66 3 -7 6 -4 6 9 1 18 8 22 39 25 25 2 36 7 34 17 -5 23 46
81 66 74 14 -5 13 -1 -5 18 -39 43 -82 113 -76 124 4 5 -5 0 -18 -12 -14 -13
-49 -27 -80 -33 -86 -16 -89 -18 -89 -53 0 -29 -8 -37 -88 -88 -123 -80 -129
-83 -141 -62 -8 15 3 24 72 61 45 24 89 50 97 59 8 8 -21 -4 -65 -27 -69 -36
-76 -38 -50 -15 l30 28 -35 -22 c-19 -11 -34 -26 -32 -32 1 -6 -2 -8 -8 -4
-12 8 45 84 69 93 9 3 63 32 119 64 57 33 105 58 108 56 6 -6 -175 -128 -190
-128 -8 0 -16 -7 -20 -15 -5 -13 -2 -14 16 -4 54 29 228 153 228 162 0 6 8 19
18 30 9 11 11 17 4 13 -13 -8 -44 21 -115 108 -32 38 -44 46 -73 46 -29 0 -34
3 -34 24 0 25 22 37 90 50 40 7 156 -4 213 -21z m-352 -167 c-28 -59 -49 -111
-48 -115 2 -8 -116 -111 -127 -111 -3 0 -6 15 -6 34 0 19 -4 38 -10 41 -14 9
-12 28 3 22 6 -2 11 -10 10 -16 -6 -23 19 -10 69 37 44 41 50 44 44 22 -11
-39 6 -6 55 107 24 57 47 99 52 94 4 -4 -15 -56 -42 -115z m65 58 c-1 -25 4
-54 11 -64 10 -14 9 -21 -8 -39 -11 -11 -27 -21 -37 -22 -15 0 -14 -1 2 -8 18
-7 17 -9 -10 -34 -15 -15 -32 -23 -37 -18 -9 9 1 41 14 41 5 0 9 10 9 23 -1
18 -5 15 -21 -16 -11 -22 -23 -37 -25 -34 -8 8 36 88 45 83 4 -3 17 15 29 40
30 60 27 70 -3 14 -13 -25 -24 -42 -25 -39 0 9 49 119 54 119 2 0 3 -21 2 -46z
m93 -4 c33 -41 39 -55 19 -45 -7 3 -2 -2 11 -12 14 -10 34 -26 45 -35 l21 -17
-21 -1 c-21 0 -154 94 -154 109 0 4 3 11 7 14 8 9 34 -13 28 -23 -2 -4 8 -13
23 -19 25 -12 24 -9 -11 26 -20 22 -35 42 -31 45 11 11 31 -2 63 -42z m-169 1
c0 -28 -46 -104 -85 -140 -24 -22 -47 -41 -49 -41 -6 0 61 114 92 158 22 31
42 42 42 23z m-130 -27 c0 -9 -5 -14 -12 -12 -18 6 -21 28 -4 28 9 0 16 -7 16
-16z m290 -46 c52 -38 75 -68 52 -68 -15 0 -112 71 -122 90 -17 32 6 25 70
-22z m-280 9 c0 -8 -9 -22 -20 -32 -19 -18 -20 -17 -20 3 0 14 6 22 18 23 14
0 14 2 -3 9 -19 8 -19 9 3 9 12 1 22 -5 22 -12z m258 -43 c2 -1 -4 -16 -13
-34 -9 -18 -14 -34 -11 -38 3 -3 11 9 17 26 12 36 14 37 48 18 l23 -13 -38
-23 c-22 -12 -45 -23 -52 -24 -8 -2 -17 -7 -20 -13 -4 -6 -22 -18 -39 -27 -25
-12 -33 -13 -33 -4 0 7 -19 -7 -41 -32 -47 -54 -107 -136 -91 -126 7 4 12 1
12 -8 0 -9 5 -16 10 -16 6 0 10 -7 10 -15 0 -8 -4 -15 -10 -15 -5 0 -10 6 -10
14 0 8 -7 16 -14 19 -10 4 -13 1 -10 -8 6 -14 -74 -165 -86 -165 -3 0 -21 15
-39 34 l-32 33 53 59 c64 70 82 94 75 94 -4 0 -45 -44 -93 -97 -95 -108 -115
-125 -106 -91 3 13 1 19 -5 15 -6 -4 -13 3 -16 15 -8 29 0 36 16 15 11 -15 16
-13 57 24 25 23 36 35 25 28 -11 -7 -32 -24 -46 -37 l-26 -23 -6 21 c-3 12
-10 19 -16 15 -28 -16 -7 29 27 59 80 72 162 136 173 136 6 0 42 25 79 55 37
30 70 55 74 55 13 0 5 -31 -9 -36 -8 -4 -15 -11 -15 -17 0 -6 16 5 36 24 34
32 36 33 30 9 -4 -14 6 -2 21 25 54 93 56 95 73 82 8 -6 16 -12 18 -13z m212
-113 c0 -30 -53 -35 -125 -13 -16 5 -13 7 15 13 53 10 110 10 110 0z m-150
-61 c0 -27 -2 -50 -4 -50 -19 0 -36 16 -36 34 0 37 12 66 26 66 10 0 14 -14
14 -50z m96 17 c6 -6 -62 -57 -75 -57 -11 0 -16 62 -5 72 5 6 72 -7 80 -15z
m49 -117 c4 -6 -6 -10 -22 -9 -25 0 -26 1 -8 9 11 5 21 9 22 9 1 1 5 -3 8 -9z
m-435 -110 c0 -24 -5 -29 -27 -33 -23 -3 -21 -4 10 -6 20 0 37 -5 37 -11 0 -5
7 -10 15 -10 8 0 15 -4 15 -10 0 -6 -28 -10 -65 -10 -37 0 -65 4 -65 10 0 5
12 32 27 59 30 53 53 57 53 11z m75 -7 c26 -30 35 -48 28 -50 -7 -3 -13 -14
-13 -26 0 -19 -6 -15 -40 23 -36 42 -49 77 -33 93 11 11 16 7 58 -40z m-523
-489 l3 -96 49 37 c36 28 45 40 35 46 -9 6 2 9 31 8 l45 0 -30 -14 c-70 -33
-71 -36 -30 -109 20 -36 44 -70 53 -76 12 -7 -4 -9 -57 -10 -62 0 -72 2 -62
14 10 11 9 21 -3 45 -25 48 -36 47 -36 -3 0 -26 5 -46 13 -49 6 -3 -22 -5 -63
-6 -55 0 -69 3 -52 9 21 9 22 14 22 139 0 113 -2 130 -17 137 -17 7 3 12 84
22 9 2 13 -26 15 -94z m-935 71 c22 5 23 2 23 -45 0 -57 -12 -64 -30 -19 -16
39 -51 61 -87 57 -22 -2 -29 -9 -31 -30 -3 -24 4 -32 43 -55 82 -48 108 -76
108 -113 0 -24 -7 -40 -28 -57 -26 -23 -35 -24 -116 -21 l-89 3 1 50 c0 43 2
47 12 30 7 -10 24 -32 39 -48 23 -23 35 -28 65 -25 33 3 38 7 41 30 3 24 -4
32 -43 55 -111 66 -136 114 -85 168 26 27 58 34 115 22 21 -4 50 -5 62 -2z
m1498 -76 l30 -7 -32 -1 -33 -1 0 -64 c0 -35 3 -78 6 -96 6 -29 10 -31 36 -26
18 3 27 2 23 -4 -8 -13 -81 -13 -105 0 -23 12 -40 68 -40 132 0 27 -5 49 -12
52 -10 5 -10 8 1 12 8 4 30 22 50 40 l36 33 5 -32 c4 -26 11 -33 35 -38z
m-1342 -1 c4 -10 7 -10 18 0 7 6 29 12 49 12 56 0 72 -25 78 -117 3 -55 9 -82
20 -90 13 -11 3 -13 -57 -13 l-72 0 15 22 c10 15 16 45 16 84 0 94 -13 113
-52 77 -24 -21 -25 -128 -2 -161 l15 -22 -73 0 c-54 1 -69 3 -55 11 14 8 17
25 17 94 0 73 -2 85 -17 85 -33 0 2 19 42 23 22 2 43 4 47 5 3 1 8 -4 11 -10z
m362 -13 c22 -21 25 -33 25 -95 0 -63 2 -72 20 -77 11 -3 17 -9 14 -14 -7 -13
-78 -11 -91 2 -8 8 -17 8 -31 0 -55 -30 -121 3 -108 54 7 26 43 48 99 60 31 6
37 38 13 70 -18 26 -51 13 -36 -14 15 -30 2 -53 -29 -49 -20 2 -27 9 -29 30
-7 57 105 82 153 33z m261 0 c21 -21 23 -28 14 -46 -18 -33 -54 -21 -58 19 -4
39 -29 53 -48 27 -16 -22 -19 -122 -4 -159 12 -33 56 -35 94 -5 14 11 26 16
26 10 0 -34 -101 -54 -153 -30 -52 23 -70 93 -41 154 18 39 45 53 102 54 33 1
49 -5 68 -24z m509 0 c22 -21 25 -33 25 -95 0 -63 2 -72 20 -77 11 -3 17 -9
14 -14 -7 -13 -78 -11 -91 2 -8 8 -17 8 -31 0 -55 -30 -121 3 -108 54 7 26 43
48 99 60 31 6 37 38 13 70 -18 26 -51 13 -36 -14 15 -30 2 -53 -29 -49 -20 2
-27 9 -29 30 -7 57 105 82 153 33z m456 -4 c16 -16 29 -39 29 -50 0 -19 -6
-21 -75 -21 -81 0 -82 -1 -65 -59 16 -55 57 -67 103 -31 14 11 28 16 31 11 11
-16 -43 -41 -89 -41 -84 0 -124 37 -125 113 0 40 5 53 29 78 25 25 37 29 81
29 44 0 56 -4 81 -29z"/>
<path d="M2817 3813 c-50 -127 -103 -332 -80 -308 5 6 23 60 38 120 29 114 42
154 69 218 9 20 12 37 8 37 -5 0 -21 -30 -35 -67z"/>
<path d="M2721 3444 c0 -11 3 -14 6 -6 3 7 2 16 -1 19 -3 4 -6 -2 -5 -13z"/>
<path d="M2928 3393 c6 -2 18 -2 25 0 6 3 1 5 -13 5 -14 0 -19 -2 -12 -5z"/>
<path d="M2595 3376 c-18 -13 -18 -14 6 -27 36 -20 246 -19 259 1 7 11 5 19
-7 28 -24 17 -80 15 -87 -3 -3 -9 -18 -15 -36 -15 -18 0 -33 6 -36 15 -8 19
-73 20 -99 1z"/>
<path d="M2993 3383 c9 -2 23 -2 30 0 6 3 -1 5 -18 5 -16 0 -22 -2 -12 -5z"/>
<path d="M3073 3363 c21 -9 36 -21 34 -27 -5 -16 -80 -36 -172 -46 l-80 -9 80
4 c95 4 185 29 185 51 0 13 -57 45 -77 43 -4 -1 9 -8 30 -16z"/>
<path d="M2418 3313 c7 -3 16 -2 19 1 4 3 -2 6 -13 5 -11 0 -14 -3 -6 -6z"/>
<path d="M2468 3303 c6 -2 18 -2 25 0 6 3 1 5 -13 5 -14 0 -19 -2 -12 -5z"/>
<path d="M2528 3293 c12 -2 30 -2 40 0 9 3 -1 5 -23 4 -22 0 -30 -2 -17 -4z"/>
<path d="M2633 3283 c15 -2 39 -2 55 0 15 2 2 4 -28 4 -30 0 -43 -2 -27 -4z"/>
<path d="M2753 3273 c15 -2 37 -2 50 0 12 2 0 4 -28 4 -27 0 -38 -2 -22 -4z"/>
<path d="M1688 3413 c6 -2 18 -2 25 0 6 3 1 5 -13 5 -14 0 -19 -2 -12 -5z"/>
<path d="M1500 3375 c0 -27 4 -35 18 -34 10 0 12 3 5 6 -7 2 -13 15 -13 28 0
18 6 25 28 28 25 4 25 4 -5 6 -31 1 -33 -1 -33 -34z"/>
<path d="M1808 3353 c17 -2 47 -2 65 0 17 2 3 4 -33 4 -36 0 -50 -2 -32 -4z"/>
<path d="M1767 3333 c-17 -16 -6 -33 21 -32 24 2 25 2 4 6 -15 3 -22 10 -18
19 6 15 3 18 -7 7z"/>
<path d="M1903 3303 c9 -2 25 -2 35 0 9 3 1 5 -18 5 -19 0 -27 -2 -17 -5z"/>
<path d="M2065 3290 c10 -11 20 -20 23 -20 3 0 -3 9 -13 20 -10 11 -20 20 -23
20 -3 0 3 -9 13 -20z"/>
<path d="M1510 3290 l-45 -7 42 -1 c23 -1 45 3 48 8 3 6 5 9 3 8 -2 0 -23 -4
-48 -8z"/>
<path d="M1668 3293 c6 -2 18 -2 25 0 6 3 1 5 -13 5 -14 0 -19 -2 -12 -5z"/>
<path d="M1374 3238 l-19 -23 23 19 c21 18 27 26 19 26 -2 0 -12 -10 -23 -22z"/>
<path d="M1283 3170 c0 -25 2 -35 4 -22 2 12 2 32 0 45 -2 12 -4 2 -4 -23z"/>
<path d="M1753 3083 c15 -2 39 -2 55 0 15 2 2 4 -28 4 -30 0 -43 -2 -27 -4z"/>
<path d="M1321 3064 c0 -11 3 -14 6 -6 3 7 2 16 -1 19 -3 4 -6 -2 -5 -13z"/>
<path d="M1573 3073 c9 -2 25 -2 35 0 9 3 1 5 -18 5 -19 0 -27 -2 -17 -5z"/>
<path d="M1351 2985 c-2 -11 -5 -15 -8 -7 -2 6 -9 12 -13 12 -12 0 20 -91 59
-168 42 -83 48 -79 9 6 -17 37 -34 92 -38 122 -4 30 -8 46 -9 35z"/>
<path d="M1475 2660 c9 -16 18 -30 21 -30 2 0 -2 14 -11 30 -9 17 -18 30 -21
30 -2 0 2 -13 11 -30z"/>
<path d="M2206 2611 c-10 -15 40 -30 71 -20 28 9 28 9 -4 4 -25 -3 -33 -1 -33
10 0 16 -25 21 -34 6z"/>
<path d="M1970 2570 c-13 -8 -12 -10 3 -10 9 0 17 5 17 10 0 12 -1 12 -20 0z"/>
<path d="M2868 2526 c-60 -41 -88 -66 -88 -79 0 -5 17 6 38 25 20 18 54 44 75
56 20 13 37 26 37 28 0 9 -18 1 -62 -30z"/>
<path d="M2520 2524 c0 -8 4 -13 9 -10 5 4 11 2 13 -4 2 -6 8 -6 18 0 13 8 12
10 -2 10 -10 0 -18 5 -18 10 0 6 -4 10 -10 10 -5 0 -10 -7 -10 -16z"/>
<path d="M2095 2439 c-32 -11 -74 -19 -91 -17 -18 2 -30 0 -28 -4 7 -12 68
-10 101 3 15 6 51 17 78 24 31 8 40 13 25 14 -14 0 -52 -9 -85 -20z"/>
<path d="M2910 2456 c0 -2 7 -7 16 -10 8 -3 12 -2 9 4 -6 10 -25 14 -25 6z"/>
<path d="M2804 2436 c-3 -8 -4 -23 -1 -33 3 -11 5 -6 6 12 l2 30 22 -25 c20
-23 24 -24 47 -12 24 13 24 14 2 9 -15 -4 -30 1 -43 14 -23 23 -28 23 -35 5z"/>
<path d="M2185 2420 c-3 -6 1 -7 9 -4 18 7 21 14 7 14 -6 0 -13 -4 -16 -10z"/>
<path d="M2655 2380 c0 -21 3 -36 8 -33 4 2 7 17 7 33 0 16 -3 31 -7 33 -5 3
-8 -12 -8 -33z"/>
<path d="M1885 2401 c-6 -5 -21 -11 -35 -13 -24 -3 -24 -4 -3 -10 15 -4 27 0
39 13 17 19 16 27 -1 10z"/>
<path d="M2135 2400 c-18 -5 -22 -8 -11 -9 19 -1 19 -1 0 -23 -10 -12 -13 -18
-5 -13 11 6 13 3 9 -13 -4 -12 -2 -22 2 -22 5 0 12 15 15 33 4 17 12 38 17 45
6 6 9 11 7 11 -2 -1 -17 -5 -34 -9z"/>
<path d="M2358 2366 c-20 -8 -59 -18 -85 -21 -69 -9 -99 -23 -111 -51 -15 -32
-34 -30 -74 6 -38 35 -46 37 -147 43 -62 4 -76 2 -92 -14 -11 -11 -28 -19 -39
-19 -21 0 -29 -34 -10 -45 6 -4 68 -13 138 -21 70 -8 147 -19 172 -25 35 -7
79 -5 190 11 150 21 329 57 343 69 4 4 4 22 1 41 l-7 34 -27 -33 -28 -32 -35
30 c-28 25 -46 32 -93 36 -38 3 -72 0 -96 -9z"/>
<path d="M2780 2323 c0 -6 5 -15 10 -18 14 -9 13 -55 -2 -55 -6 0 -9 -3 -5 -6
3 -3 15 1 27 9 16 11 18 16 8 20 -10 4 -10 8 2 16 12 9 12 11 1 11 -8 0 -20 8
-27 18 -7 9 -14 12 -14 5z"/>
<path d="M2750 2286 c0 -8 4 -17 9 -20 5 -4 7 3 4 14 -6 23 -13 26 -13 6z"/>
<path d="M3589 2563 c-10 -11 -10 -14 -1 -9 8 5 12 1 12 -11 0 -10 -24 -40
-52 -67 l-53 -48 57 46 c77 63 107 62 48 -1 l-45 -48 52 49 c52 50 60 69 23
59 -16 -4 -20 0 -20 17 0 20 2 21 18 9 15 -13 16 -12 3 4 -17 21 -25 21 -42 0z"/>
<path d="M3574 2208 l-19 -23 23 19 c12 11 22 21 22 23 0 8 -8 2 -26 -19z"/>
<path d="M3311 2209 c-1 -10 12 -42 28 -72 22 -41 26 -58 17 -67 -8 -8 -7 -10
7 -5 11 5 17 2 17 -6 1 -10 4 -9 10 3 7 12 2 33 -20 80 -16 34 -30 57 -30 50
0 -7 7 -27 16 -43 8 -17 13 -33 10 -36 -3 -4 -13 11 -21 33 -29 72 -34 81 -34
63z m73 -115 c3 -8 2 -12 -4 -9 -6 3 -10 10 -10 16 0 14 7 11 14 -7z"/>
<path d="M3255 2167 c-4 -15 -5 -31 -1 -34 3 -4 6 2 6 13 1 19 1 19 12 0 8
-15 7 -22 -6 -31 -9 -7 -16 -18 -16 -24 0 -21 -24 -6 -32 20 l-7 24 2 -25 c1
-15 11 -29 25 -35 12 -5 22 -13 22 -17 0 -5 8 -8 18 -8 13 0 14 2 3 9 -9 6
-12 18 -7 37 l7 28 21 -32 c11 -18 23 -30 26 -27 3 2 -2 13 -11 23 -9 9 -25
37 -35 62 -20 45 -20 45 -27 17z"/>
<path d="M3045 2233 c-49 -47 -70 -68 -45 -48 69 58 142 127 138 130 -2 2 -43
-35 -93 -82z"/>
<path d="M2152 1458 c-14 -14 -16 -74 -3 -83 14 -8 31 28 31 64 0 33 -8 39
-28 19z"/>
<path d="M2922 1458 c-14 -14 -16 -74 -3 -83 14 -8 31 28 31 64 0 33 -8 39
-28 19z"/>
<path d="M3363 1558 c-6 -7 -13 -23 -16 -35 -5 -21 -2 -23 34 -23 42 0 44 4
29 44 -10 28 -31 34 -47 14z"/>
</g>
</svg>
